<svg aria-roledescription="flowchart-v2" role="graphics-document document" viewBox="-8 -8 871.05078125 676.39990234375" style="max-width: 871.051px; background-color: white;" xmlns:xlink="http://www.w3.org/1999/xlink" xmlns="http://www.w3.org/2000/svg" width="100%" id="my-svg"><style>#my-svg{font-size:13px;fill:#e2e8f0;}#my-svg .error-icon{fill:#1e293b;}#my-svg .error-text{fill:#e1d6c4;stroke:#e1d6c4;}#my-svg .edge-thickness-normal{stroke-width:2px;}#my-svg .edge-thickness-thick{stroke-width:3.5px;}#my-svg .edge-pattern-solid{stroke-dasharray:0;}#my-svg .edge-pattern-dashed{stroke-dasharray:3;}#my-svg .edge-pattern-dotted{stroke-dasharray:2;}#my-svg .marker{fill:#38bdf8;stroke:#38bdf8;}#my-svg .marker.cross{stroke:#38bdf8;}#my-svg svg{font-size:13px;}#my-svg .label{color:#e2e8f0;}#my-svg .cluster-label text{fill:#1e1b4b;}#my-svg .cluster-label span,#my-svg p{color:#1e1b4b;}#my-svg .label text,#my-svg span,#my-svg p{fill:#e2e8f0;color:#e2e8f0;}#my-svg .node rect,#my-svg .node circle,#my-svg .node ellipse,#my-svg .node polygon,#my-svg .node path{fill:#0f172a;stroke:#0063e5;stroke-width:1px;}#my-svg .flowchart-label text{text-anchor:middle;}#my-svg .node .katex path{fill:#000;stroke:#000;stroke-width:1px;}#my-svg .node .label{text-align:center;}#my-svg .node.clickable{cursor:pointer;}#my-svg .arrowheadPath{fill:#0b0b0b;}#my-svg .edgePath .path{stroke:#38bdf8;stroke-width:2.0px;}#my-svg .flowchart-link{stroke:#38bdf8;fill:none;}#my-svg .edgeLabel{background-color:#e8f0ff;text-align:center;}#my-svg .edgeLabel rect{opacity:0.5;background-color:#e8f0ff;fill:#e8f0ff;}#my-svg .labelBkg{background-color:rgba(232, 240, 255, 0.5);}#my-svg .cluster rect{fill:#f0f7ff;stroke:#bfdbfe;stroke-width:1px;}#my-svg .cluster text{fill:#1e1b4b;}#my-svg .cluster span,#my-svg p{color:#1e1b4b;}#my-svg div.mermaidTooltip{position:absolute;text-align:center;max-width:200px;padding:2px;font-size:12px;background:#1e293b;border:1px solid hsl(217.2413793103, 0%, 7.4509803922%);border-radius:2px;pointer-events:none;z-index:100;}#my-svg .flowchartTitleText{text-anchor:middle;font-size:18px;fill:#e2e8f0;}#my-svg :root{--mermaid-font-family:"trebuchet ms",verdana,arial,sans-serif;}</style><g><marker orient="auto" markerHeight="12" markerWidth="12" markerUnits="userSpaceOnUse" refY="5" refX="6" viewBox="0 0 10 10" class="marker flowchart" id="my-svg_flowchart-pointEnd"><path style="stroke-width: 1; stroke-dasharray: 1, 0;" class="arrowMarkerPath" d="M 0 0 L 10 5 L 0 10 z"/></marker><marker orient="auto" markerHeight="12" markerWidth="12" markerUnits="userSpaceOnUse" refY="5" refX="4.5" viewBox="0 0 10 10" class="marker flowchart" id="my-svg_flowchart-pointStart"><path style="stroke-width: 1; stroke-dasharray: 1, 0;" class="arrowMarkerPath" d="M 0 5 L 10 10 L 10 0 z"/></marker><marker orient="auto" markerHeight="11" markerWidth="11" markerUnits="userSpaceOnUse" refY="5" refX="11" viewBox="0 0 10 10" class="marker flowchart" id="my-svg_flowchart-circleEnd"><circle style="stroke-width: 1; stroke-dasharray: 1, 0;" class="arrowMarkerPath" r="5" cy="5" cx="5"/></marker><marker orient="auto" markerHeight="11" markerWidth="11" markerUnits="userSpaceOnUse" refY="5" refX="-1" viewBox="0 0 10 10" class="marker flowchart" id="my-svg_flowchart-circleStart"><circle style="stroke-width: 1; stroke-dasharray: 1, 0;" class="arrowMarkerPath" r="5" cy="5" cx="5"/></marker><marker orient="auto" markerHeight="11" markerWidth="11" markerUnits="userSpaceOnUse" refY="5.2" refX="12" viewBox="0 0 11 11" class="marker cross flowchart" id="my-svg_flowchart-crossEnd"><path style="stroke-width: 2; stroke-dasharray: 1, 0;" class="arrowMarkerPath" d="M 1,1 l 9,9 M 10,1 l -9,9"/></marker><marker orient="auto" markerHeight="11" markerWidth="11" markerUnits="userSpaceOnUse" refY="5.2" refX="-1" viewBox="0 0 11 11" class="marker cross flowchart" id="my-svg_flowchart-crossStart"><path style="stroke-width: 2; stroke-dasharray: 1, 0;" class="arrowMarkerPath" d="M 1,1 l 9,9 M 10,1 l -9,9"/></marker><g class="root"><g class="clusters"><g id="Convex" class="cluster default flowchart-label"><rect height="230.39991760253906" width="610.8515625" y="430" x="244.19921875" ry="0" rx="0" style=""/><g transform="translate(502.4453125, 430)" class="cluster-label"><foreignObject height="15" width="94.359375"><div style="display: inline-block; white-space: nowrap;" xmlns="http://www.w3.org/1999/xhtml"><span class="nodeLabel">Convex Backend</span></div></foreignObject></g></g><g id="Frontend" class="cluster default flowchart-label"><rect height="285" width="827.0390625" y="80" x="0" ry="0" rx="0" style=""/><g transform="translate(348.58203125, 80)" class="cluster-label"><foreignObject height="15" width="129.875"><div style="display: inline-block; white-space: nowrap;" xmlns="http://www.w3.org/1999/xhtml"><span class="nodeLabel">Frontend (ES Modules)</span></div></foreignObject></g></g></g><g class="edgePaths"><path marker-end="url(#my-svg_flowchart-pointEnd)" style="fill:none;" class="edge-thickness-normal edge-pattern-solid flowchart-link LS-User LE-HTML" id="L-User-HTML-0" d="M323.641,30L323.641,34.167C323.641,38.333,323.641,46.667,323.641,55C323.641,63.333,323.641,71.667,323.641,79.117C323.641,86.567,323.641,93.133,323.641,96.417L323.641,99.7"/><path marker-end="url(#my-svg_flowchart-pointEnd)" style="fill:none;" class="edge-thickness-normal edge-pattern-solid flowchart-link LS-HTML LE-app" id="L-HTML-app-0" d="M323.641,150L323.641,154.167C323.641,158.333,323.641,166.667,323.641,174.117C323.641,181.567,323.641,188.133,323.641,191.417L323.641,194.7"/><path marker-end="url(#my-svg_flowchart-pointEnd)" style="fill:none;" class="edge-thickness-normal edge-pattern-solid flowchart-link LS-app LE-state" id="L-app-state-0" d="M283.742,230.784L252.263,237.32C220.784,243.856,157.826,256.928,126.346,266.747C94.867,276.567,94.867,283.133,94.867,286.417L94.867,289.7"/><path marker-end="url(#my-svg_flowchart-pointEnd)" style="fill:none;" class="edge-thickness-normal edge-pattern-solid flowchart-link LS-app LE-render" id="L-app-render-0" d="M296.004,245L290.886,249.167C285.768,253.333,275.533,261.667,270.415,269.117C265.297,276.567,265.297,283.133,265.297,286.417L265.297,289.7"/><path marker-end="url(#my-svg_flowchart-pointEnd)" style="fill:none;" class="edge-thickness-normal edge-pattern-solid flowchart-link LS-app LE-events" id="L-app-events-0" d="M363.539,239.04L375.986,244.2C388.432,249.36,413.326,259.68,425.772,268.123C438.219,276.567,438.219,283.133,438.219,286.417L438.219,289.7"/><path marker-end="url(#my-svg_flowchart-pointEnd)" style="fill:none;" class="edge-thickness-normal edge-pattern-solid flowchart-link LS-app LE-data" id="L-app-data-0" d="M363.539,229.023L405.313,235.852C447.086,242.682,530.633,256.341,572.406,266.454C614.18,276.567,614.18,283.133,614.18,286.417L614.18,289.7"/><path marker-end="url(#my-svg_flowchart-pointEnd)" style="fill:none;" class="edge-thickness-normal edge-pattern-solid flowchart-link LS-app LE-utils" id="L-app-utils-0" d="M363.539,226.87L429.169,234.058C494.799,241.247,626.06,255.623,691.69,266.095C757.32,276.567,757.32,283.133,757.32,286.417L757.32,289.7"/><path marker-end="url(#my-svg_flowchart-pointEnd)" style="fill:none;" class="edge-thickness-normal edge-pattern-solid flowchart-link LS-data LE-auth" id="L-data-auth-0" d="M550.578,328.602L515.825,334.668C481.072,340.735,411.565,352.867,376.812,364.35C342.059,375.833,342.059,386.667,342.059,397.5C342.059,408.333,342.059,419.167,342.059,427.867C342.059,436.567,342.059,443.133,342.059,446.417L342.059,449.7"/><path marker-end="url(#my-svg_flowchart-pointEnd)" style="fill:none;" class="edge-thickness-normal edge-pattern-solid flowchart-link LS-data LE-memes" id="L-data-memes-0" d="M570.375,340L562.263,344.167C554.151,348.333,537.927,356.667,529.815,366.25C521.703,375.833,521.703,386.667,521.703,397.5C521.703,408.333,521.703,419.167,521.703,427.867C521.703,436.567,521.703,443.133,521.703,446.417L521.703,449.7"/><path marker-end="url(#my-svg_flowchart-pointEnd)" style="fill:none;" class="edge-thickness-normal edge-pattern-solid flowchart-link LS-data LE-votes" id="L-data-votes-0" d="M657.984,340L666.096,344.167C674.208,348.333,690.432,356.667,698.544,366.25C706.656,375.833,706.656,386.667,706.656,397.5C706.656,408.333,706.656,419.167,706.656,427.867C706.656,436.567,706.656,443.133,706.656,446.417L706.656,449.7"/><path marker-end="url(#my-svg_flowchart-pointEnd)" style="fill:none;" class="edge-thickness-normal edge-pattern-solid flowchart-link LS-auth LE-DB" id="L-auth-DB-0" d="M342.059,500L342.059,504.167C342.059,508.333,342.059,516.667,356.301,528.877C370.544,541.086,399.029,557.173,413.271,565.216L427.514,573.259"/><path marker-end="url(#my-svg_flowchart-pointEnd)" style="fill:none;" class="edge-thickness-normal edge-pattern-solid flowchart-link LS-memes LE-DB" id="L-memes-DB-0" d="M511.234,500L509.295,504.167C507.356,508.333,503.479,516.667,501.808,524.122C500.136,531.578,500.67,538.155,500.938,541.444L501.205,544.733"/><path marker-end="url(#my-svg_flowchart-pointEnd)" style="fill:none;" class="edge-thickness-normal edge-pattern-solid flowchart-link LS-votes LE-DB" id="L-votes-DB-0" d="M696.187,500L694.248,504.167C692.31,508.333,688.432,516.667,669.574,527.216C650.717,537.766,616.879,550.532,599.96,556.915L583.041,563.298"/><path marker-end="url(#my-svg_flowchart-pointEnd)" style="fill:none;" class="edge-thickness-normal edge-pattern-solid flowchart-link LS-memes LE-FS" id="L-memes-FS-0" d="M592.906,490.7L623.742,496.417C654.577,502.134,716.247,513.567,747.083,524.667C777.918,535.767,777.918,546.533,777.918,551.916L777.918,557.3"/></g><g class="edgeLabels"><g class="edgeLabel"><g transform="translate(0, 0)" class="label"><foreignObject height="0" width="0"><div style="display: inline-block; white-space: nowrap;" xmlns="http://www.w3.org/1999/xhtml"><span class="edgeLabel"></span></div></foreignObject></g></g><g class="edgeLabel"><g transform="translate(0, 0)" class="label"><foreignObject height="0" width="0"><div style="display: inline-block; white-space: nowrap;" xmlns="http://www.w3.org/1999/xhtml"><span class="edgeLabel"></span></div></foreignObject></g></g><g class="edgeLabel"><g transform="translate(0, 0)" class="label"><foreignObject height="0" width="0"><div style="display: inline-block; white-space: nowrap;" xmlns="http://www.w3.org/1999/xhtml"><span class="edgeLabel"></span></div></foreignObject></g></g><g class="edgeLabel"><g transform="translate(0, 0)" class="label"><foreignObject height="0" width="0"><div style="display: inline-block; white-space: nowrap;" xmlns="http://www.w3.org/1999/xhtml"><span class="edgeLabel"></span></div></foreignObject></g></g><g class="edgeLabel"><g transform="translate(0, 0)" class="label"><foreignObject height="0" width="0"><div style="display: inline-block; white-space: nowrap;" xmlns="http://www.w3.org/1999/xhtml"><span class="edgeLabel"></span></div></foreignObject></g></g><g class="edgeLabel"><g transform="translate(0, 0)" class="label"><foreignObject height="0" width="0"><div style="display: inline-block; white-space: nowrap;" xmlns="http://www.w3.org/1999/xhtml"><span class="edgeLabel"></span></div></foreignObject></g></g><g class="edgeLabel"><g transform="translate(0, 0)" class="label"><foreignObject height="0" width="0"><div style="display: inline-block; white-space: nowrap;" xmlns="http://www.w3.org/1999/xhtml"><span class="edgeLabel"></span></div></foreignObject></g></g><g transform="translate(342.05859375, 397.5)" class="edgeLabel"><g transform="translate(-57.640625, -7.5)" class="label"><foreignObject height="15" width="115.28125"><div style="display: inline-block; white-space: nowrap;" xmlns="http://www.w3.org/1999/xhtml"><span class="edgeLabel">mutations / queries</span></div></foreignObject></g></g><g transform="translate(521.703125, 397.5)" class="edgeLabel"><g transform="translate(-57.640625, -7.5)" class="label"><foreignObject height="15" width="115.28125"><div style="display: inline-block; white-space: nowrap;" xmlns="http://www.w3.org/1999/xhtml"><span class="edgeLabel">mutations / queries</span></div></foreignObject></g></g><g transform="translate(706.65625, 397.5)" class="edgeLabel"><g transform="translate(-57.640625, -7.5)" class="label"><foreignObject height="15" width="115.28125"><div style="display: inline-block; white-space: nowrap;" xmlns="http://www.w3.org/1999/xhtml"><span class="edgeLabel">mutations / queries</span></div></foreignObject></g></g><g class="edgeLabel"><g transform="translate(0, 0)" class="label"><foreignObject height="0" width="0"><div style="display: inline-block; white-space: nowrap;" xmlns="http://www.w3.org/1999/xhtml"><span class="edgeLabel"></span></div></foreignObject></g></g><g class="edgeLabel"><g transform="translate(0, 0)" class="label"><foreignObject height="0" width="0"><div style="display: inline-block; white-space: nowrap;" xmlns="http://www.w3.org/1999/xhtml"><span class="edgeLabel"></span></div></foreignObject></g></g><g class="edgeLabel"><g transform="translate(0, 0)" class="label"><foreignObject height="0" width="0"><div style="display: inline-block; white-space: nowrap;" xmlns="http://www.w3.org/1999/xhtml"><span class="edgeLabel"></span></div></foreignObject></g></g><g class="edgeLabel"><g transform="translate(0, 0)" class="label"><foreignObject height="0" width="0"><div style="display: inline-block; white-space: nowrap;" xmlns="http://www.w3.org/1999/xhtml"><span class="edgeLabel"></span></div></foreignObject></g></g></g><g class="nodes"><g transform="translate(342.05859375, 477.5)" data-id="auth" data-node="true" id="flowchart-auth-15" class="node default default flowchart-label"><rect height="45" width="105.484375" y="-22.5" x="-52.7421875" ry="0" rx="0" style="" class="basic label-container"/><g transform="translate(-45.2421875, -15)" style="" class="label"><rect/><foreignObject height="30" width="90.484375"><div style="display: inline-block; white-space: nowrap;" xmlns="http://www.w3.org/1999/xhtml"><span class="nodeLabel">auth.ts<br />Login / register</span></div></foreignObject></g></g><g transform="translate(521.703125, 477.5)" data-id="memes" data-node="true" id="flowchart-memes-17" class="node default default flowchart-label"><rect height="45" width="142.40625" y="-22.5" x="-71.203125" ry="0" rx="0" style="" class="basic label-container"/><g transform="translate(-63.703125, -15)" style="" class="label"><rect/><foreignObject height="30" width="127.40625"><div style="display: inline-block; white-space: nowrap;" xmlns="http://www.w3.org/1999/xhtml"><span class="nodeLabel">memes.ts<br />Meme CRUD + storage</span></div></foreignObject></g></g><g transform="translate(706.65625, 477.5)" data-id="votes" data-node="true" id="flowchart-votes-19" class="node default default flowchart-label"><rect height="45" width="127.5" y="-22.5" x="-63.75" ry="0" rx="0" style="" class="basic label-container"/><g transform="translate(-56.25, -15)" style="" class="label"><rect/><foreignObject height="30" width="112.5"><div style="display: inline-block; white-space: nowrap;" xmlns="http://www.w3.org/1999/xhtml"><span class="nodeLabel">votes.ts<br />Upvote / downvote</span></div></foreignObject></g></g><g transform="translate(505.10546875, 592.6999588012695)" data-id="DB" data-node="true" id="flowchart-DB-23" class="node default default flowchart-label"><path transform="translate(-72.9765625,-42.699959633239146)" d="M 0,13.466639755492762 a 72.9765625,13.466639755492762 0,0,0 145.953125 0 a 72.9765625,13.466639755492762 0,0,0 -145.953125 0 l 0,58.466639755492764 a 72.9765625,13.466639755492762 0,0,0 145.953125 0 l 0,-58.466639755492764" style=""/><g transform="translate(-65.4765625, -15)" style="" class="label"><rect/><foreignObject height="30" width="130.953125"><div style="display: inline-block; white-space: nowrap;" xmlns="http://www.w3.org/1999/xhtml"><span class="nodeLabel">Database<br />users / memes / votes</span></div></foreignObject></g></g><g transform="translate(777.91796875, 592.6999588012695)" data-id="FS" data-node="true" id="flowchart-FS-25" class="node default default flowchart-label"><path transform="translate(-42.1328125,-30.10023893078474)" d="M 0,10.066825953856492 a 42.1328125,10.066825953856492 0,0,0 84.265625 0 a 42.1328125,10.066825953856492 0,0,0 -84.265625 0 l 0,40.066825953856494 a 42.1328125,10.066825953856492 0,0,0 84.265625 0 l 0,-40.066825953856494" style=""/><g transform="translate(-34.6328125, -7.5)" style="" class="label"><rect/><foreignObject height="15" width="69.265625"><div style="display: inline-block; white-space: nowrap;" xmlns="http://www.w3.org/1999/xhtml"><span class="nodeLabel">File Storage</span></div></foreignObject></g></g><g transform="translate(323.640625, 222.5)" data-id="app" data-node="true" id="flowchart-app-3" class="node default default flowchart-label"><rect height="45" width="79.796875" y="-22.5" x="-39.8984375" ry="0" rx="0" style="" class="basic label-container"/><g transform="translate(-32.3984375, -15)" style="" class="label"><rect/><foreignObject height="30" width="64.796875"><div style="display: inline-block; white-space: nowrap;" xmlns="http://www.w3.org/1999/xhtml"><span class="nodeLabel">app.js<br />Entry point</span></div></foreignObject></g></g><g transform="translate(323.640625, 127.5)" data-id="HTML" data-node="true" id="flowchart-HTML-1" class="node default default flowchart-label"><rect height="45" width="78.3125" y="-22.5" x="-39.15625" ry="0" rx="0" style="" class="basic label-container"/><g transform="translate(-31.65625, -15)" style="" class="label"><rect/><foreignObject height="30" width="63.3125"><div style="display: inline-block; white-space: nowrap;" xmlns="http://www.w3.org/1999/xhtml"><span class="nodeLabel">index.html<br />App shell</span></div></foreignObject></g></g><g transform="translate(94.8671875, 317.5)" data-id="state" data-node="true" id="flowchart-state-5" class="node default default flowchart-label"><rect height="45" width="119.734375" y="-22.5" x="-59.8671875" ry="0" rx="0" style="" class="basic label-container"/><g transform="translate(-52.3671875, -15)" style="" class="label"><rect/><foreignObject height="30" width="104.734375"><div style="display: inline-block; white-space: nowrap;" xmlns="http://www.w3.org/1999/xhtml"><span class="nodeLabel">state.js<br />Auth + filter state</span></div></foreignObject></g></g><g transform="translate(265.296875, 317.5)" data-id="render" data-node="true" id="flowchart-render-7" class="node default default flowchart-label"><rect height="45" width="121.125" y="-22.5" x="-60.5625" ry="0" rx="0" style="" class="basic label-container"/><g transform="translate(-53.0625, -15)" style="" class="label"><rect/><foreignObject height="30" width="106.125"><div style="display: inline-block; white-space: nowrap;" xmlns="http://www.w3.org/1999/xhtml"><span class="nodeLabel">render.js<br />Meme grid + cards</span></div></foreignObject></g></g><g transform="translate(438.21875, 317.5)" data-id="events" data-node="true" id="flowchart-events-9" class="node default default flowchart-label"><rect height="45" width="124.71875" y="-22.5" x="-62.359375" ry="0" rx="0" style="" class="basic label-container"/><g transform="translate(-54.859375, -15)" style="" class="label"><rect/><foreignObject height="30" width="109.71875"><div style="display: inline-block; white-space: nowrap;" xmlns="http://www.w3.org/1999/xhtml"><span class="nodeLabel">events.js<br />Upload, vote, auth</span></div></foreignObject></g></g><g transform="translate(614.1796875, 317.5)" data-id="data" data-node="true" id="flowchart-data-11" class="node default default flowchart-label"><rect height="45" width="127.203125" y="-22.5" x="-63.6015625" ry="0" rx="0" style="" class="basic label-container"/><g transform="translate(-56.1015625, -15)" style="" class="label"><rect/><foreignObject height="30" width="112.203125"><div style="display: inline-block; white-space: nowrap;" xmlns="http://www.w3.org/1999/xhtml"><span class="nodeLabel">data.js<br />Convex client layer</span></div></foreignObject></g></g><g transform="translate(757.3203125, 317.5)" data-id="utils" data-node="true" id="flowchart-utils-13" class="node default default flowchart-label"><rect height="45" width="59.078125" y="-22.5" x="-29.5390625" ry="0" rx="0" style="" class="basic label-container"/><g transform="translate(-22.0390625, -15)" style="" class="label"><rect/><foreignObject height="30" width="44.078125"><div style="display: inline-block; white-space: nowrap;" xmlns="http://www.w3.org/1999/xhtml"><span class="nodeLabel">utils.js<br />Helpers</span></div></foreignObject></g></g><g transform="translate(323.640625, 15)" data-id="User" data-node="true" id="flowchart-User-0" class="node default default flowchart-label"><rect height="30" width="48.34375" y="-15" x="-24.171875" ry="15" rx="15" style=""/><g transform="translate(-12.921875, -7.5)" style="" class="label"><rect/><foreignObject height="15" width="25.84375"><div style="display: inline-block; white-space: nowrap;" xmlns="http://www.w3.org/1999/xhtml"><span class="nodeLabel">User</span></div></foreignObject></g></g></g></g></g></svg>